<svg width="88" height="88" viewBox="0 0 88 88" fill="none" xmlns="http://www.w3.org/2000/svg">
<path d="M19.8 56.2L32.3 43.7L19.8 31.2V56.2ZM23.8 46.6V40.8L26.7 43.7L23.8 46.6ZM73.7 47.2C75.2 48.7 77.1 49.5 79.2 49.5C83.5 49.5 87 46 87 41.7V8C87 3.7 83.5 0.0999985 79.1 0.0999985L45.2 0C42.1 0 39.3 1.9 38.1 4.8C36.9 7.7 37.6 11 39.8 13.2L48.1 21.5L43.5 26.1L21 3.8C18.7 1.5 15.6 0.199997 12.3 0.199997C5.5 0.199997 0 5.7 0 12.5V74.8C0 81.6 5.5 87.2 12.4 87.2C15.7 87.2 18.8 85.9 21.1 83.6L43.5 61.2L66 83.7C68.3 86 71.4 87.3 74.6 87.3H74.9C81.6 87.3 87.1 81.8 87.1 75.1V74.9C87.1 71.6 85.8 68.6 83.5 66.3L61 43.8L65.6 39.2L73.7 47.2ZM45.2 5.2L79.1 5.3C80.6 5.3 81.8 6.5 81.8 8V41.8C81.8 43.4 80.5 44.4 79.1 44.4C78.6 44.4 77.9 44.3 77.3 43.6L65.5 31.7L53.6 43.6L79.8 69.8C81.1 71.1 81.9 72.9 81.9 74.8V75C81.9 78.9 78.7 82 74.9 82H74.6C72.7 82 71 81.3 69.6 79.9L43.5 53.8L17.4 79.9C16 81.3 14.2 82 12.3 82C8.3 82 5.1 78.8 5.1 74.8V12.5C5.1 8.5 8.3 5.3 12.3 5.3C14.2 5.3 16 6 17.4 7.4L43.5 33.5L55.4 21.6L43.4 9.6C42.5 8.7 42.5 7.6 42.8 6.8C43.1 6 43.9 5.2 45.2 5.2Z" fill="#0083C1"/>
</svg>
