<svg width="53" height="53" viewBox="0 0 53 53" fill="none" xmlns="http://www.w3.org/2000/svg">
<path d="M3.78571 0C1.69174 0 0 1.69174 0 3.78571V49.2143C0 51.3083 1.69174 53 3.78571 53C5.87969 53 7.57143 51.3083 7.57143 49.2143V3.78571C7.57143 1.69174 5.87969 0 3.78571 0ZM14.1964 0C12.623 0 11.3571 1.26585 11.3571 2.83929V50.1607C11.3571 51.7342 12.623 53 14.1964 53C15.7699 53 17.0357 51.7342 17.0357 50.1607V2.83929C17.0357 1.26585 15.7699 0 14.1964 0ZM22.7143 3.78571V49.2143C22.7143 51.3083 24.406 53 26.5 53C28.594 53 30.2857 51.3083 30.2857 49.2143V3.78571C30.2857 1.69174 28.594 0 26.5 0C24.406 0 22.7143 1.69174 22.7143 3.78571ZM47.3214 2.83929V50.1607C47.3214 51.7342 48.5873 53 50.1607 53C51.7342 53 53 51.7342 53 50.1607V2.83929C53 1.26585 51.7342 0 50.1607 0C48.5873 0 47.3214 1.26585 47.3214 2.83929ZM35.9643 2.83929V50.1607C35.9643 51.7342 37.2301 53 38.8036 53C40.377 53 41.6429 51.7342 41.6429 50.1607V2.83929C41.6429 1.26585 40.377 0 38.8036 0C37.2301 0 35.9643 1.26585 35.9643 2.83929Z" fill="#006098"/>
</svg>
