<svg width="26" height="23" viewBox="0 0 26 23" fill="none" xmlns="http://www.w3.org/2000/svg">
<path fill-rule="evenodd" clip-rule="evenodd" d="M12.6843 1.8125C6.78348 1.8125 2 6.14754 2 11.4951C2 16.8426 6.78348 21.1776 12.6843 21.1776C18.5849 21.1776 23.3684 16.8426 23.3684 11.4951C23.3684 10.4991 23.2028 9.5398 22.8959 8.63778C22.7332 8.15952 23.0291 7.65223 23.5568 7.50475C24.0845 7.35726 24.6444 7.62544 24.8071 8.10372C25.1723 9.17682 25.3684 10.316 25.3684 11.4951C25.3684 17.8436 19.6895 22.9901 12.6843 22.9901C5.67892 22.9901 0 17.8436 0 11.4951C0 5.14652 5.67892 0 12.6843 0C13.5831 0 14.4611 0.0848734 15.3088 0.246573C15.8492 0.349655 16.1951 0.83027 16.0813 1.32004C15.9676 1.80982 15.4373 2.1233 14.8968 2.0202C14.1839 1.88419 13.4437 1.8125 12.6843 1.8125ZM24.5376 0.752634C24.9281 1.10656 24.9281 1.68036 24.5376 2.03427L21.5653 4.72798L22.8144 4.77193C23.3663 4.79134 23.7963 5.21252 23.7748 5.71266C23.7533 6.21279 23.2887 6.60248 22.7368 6.58306L19.202 6.45869C18.6801 6.44032 18.2619 6.06117 18.2416 5.58828L18.1044 2.38491C18.0829 1.88478 18.5129 1.46361 19.0648 1.44419C19.6167 1.42477 20.0815 1.81446 20.1028 2.31459L20.1513 3.44614L23.1235 0.752634C23.514 0.398726 24.1472 0.398726 24.5376 0.752634ZM12.6841 4.70617C13.2364 4.70617 13.6841 5.1119 13.6841 5.61242V6.17683H14.028C15.9247 6.17683 17.4621 7.57023 17.4621 9.28907C17.4621 10.1512 17.0753 10.9314 16.4504 11.4951C17.0753 12.0587 17.4621 12.8389 17.4621 13.7011C17.4621 15.4199 15.9247 16.8134 14.028 16.8134H13.6843V17.3778C13.6843 17.8783 13.2365 18.284 12.6843 18.284C12.132 18.284 11.6843 17.8783 11.6843 17.3778V16.8134H9.53581C8.63577 16.8134 7.90615 16.1522 7.90615 15.3364V7.7056C7.90615 6.86128 8.6614 6.17683 9.59305 6.17683H11.6841V5.61242C11.6841 5.1119 12.1317 4.70617 12.6841 4.70617ZM9.90615 7.98933V10.5889H14.028C14.82 10.5889 15.4621 10.0069 15.4621 9.28907C15.4621 8.5712 14.82 7.98933 14.028 7.98933H9.90615ZM9.90615 12.4014V15.0009H14.028C14.82 15.0009 15.4621 14.4189 15.4621 13.7011C15.4621 12.9833 14.82 12.4014 14.028 12.4014H9.90615Z" fill="#006098"/>
</svg>
