<svg width="33" height="30" viewBox="0 0 33 30" fill="none" xmlns="http://www.w3.org/2000/svg">
<path fill-rule="evenodd" clip-rule="evenodd" d="M18.7445 0.00330604C18.7846 0.00371216 18.8251 0.0041332 18.8663 0.00452428L26.4983 0.07865C27.3648 0.0870433 28.0888 0.094068 28.6807 0.14342C29.2985 0.194953 29.878 0.299012 30.4265 0.555715C31.2688 0.95008 31.955 1.57374 32.3886 2.33964C32.6711 2.83817 32.7856 3.36498 32.8422 3.92664C32.8966 4.46471 32.9042 5.12294 32.9135 5.9108L32.995 12.8488C32.9954 12.8863 32.9959 12.9232 32.9964 12.9597C33.0043 13.5984 33.0104 14.1012 32.8863 14.5875C32.7768 15.0162 32.5928 15.4261 32.3413 15.802C32.0557 16.2286 31.6644 16.584 31.1672 17.0354C31.1389 17.0611 31.1101 17.0872 31.0812 17.1136L19.6071 27.5445C18.9823 28.1126 18.4606 28.5869 17.9996 28.9426C17.519 29.3136 17.0231 29.6216 16.4274 29.7976C15.5136 30.0675 14.5293 30.0675 13.6153 29.7976C13.0197 29.6216 12.5239 29.3136 12.0431 28.9426C11.5822 28.5869 11.0605 28.1126 10.4356 27.5445L2.70103 20.5131C2.07609 19.945 1.55445 19.4707 1.16314 19.0516C0.754983 18.6147 0.416238 18.1639 0.2227 17.6224C-0.0742334 16.7916 -0.0742334 15.8968 0.2227 15.0659C0.416238 14.5245 0.754983 14.0737 1.16314 13.6366C1.55447 13.2175 2.07609 12.7434 2.70105 12.1753L14.175 1.74442C14.204 1.71801 14.2328 1.69191 14.2611 1.66611C14.7576 1.21414 15.1486 0.858356 15.6178 0.598825C16.0313 0.37013 16.4822 0.20288 16.9537 0.103364C17.4887 -0.00956975 18.0418 -0.00389897 18.7445 0.00330604ZM18.8397 2.26067C17.9584 2.25211 17.723 2.25727 17.515 2.30118C17.3007 2.34641 17.0957 2.42243 16.9077 2.52638C16.7254 2.62727 16.5532 2.77332 15.9299 3.33984L4.49164 13.7383C3.82191 14.3472 3.37307 14.7564 3.05518 15.0968C2.7467 15.4272 2.63508 15.6177 2.58311 15.7632C2.44815 16.1407 2.44815 16.5476 2.58311 16.9252C2.63508 17.0706 2.7467 17.2612 3.05518 17.5915C3.37307 17.9319 3.82191 18.3412 4.49162 18.9501L12.155 25.9167C12.8247 26.5256 13.2749 26.9335 13.6494 27.2226C14.0127 27.503 14.2223 27.6045 14.3823 27.6518C14.7976 27.7743 15.2452 27.7743 15.6605 27.6518C15.8205 27.6045 16.0302 27.503 16.3935 27.2226C16.7679 26.9335 17.2182 26.5256 17.8878 25.9167L29.3261 15.5182C29.9493 14.9517 30.1099 14.7951 30.2209 14.6293C30.3353 14.4585 30.419 14.2721 30.4686 14.0773C30.517 13.8882 30.5227 13.6742 30.5133 12.8731L30.4322 5.97996C30.4223 5.1353 30.4147 4.569 30.3707 4.13277C30.328 3.7099 30.2583 3.50706 30.1822 3.37254C29.985 3.0244 29.6731 2.74092 29.2902 2.56167C29.1422 2.49239 28.9191 2.42905 28.454 2.39026C27.9742 2.35024 27.3512 2.34332 26.422 2.3343L18.8397 2.26067ZM23.5139 8.6237C22.5047 7.7062 20.8675 7.70579 19.8607 8.62104C18.8539 9.53629 18.8544 11.0247 19.8637 11.9422C20.8728 12.8597 22.51 12.8601 23.5169 11.9448C24.5237 11.0296 24.5232 9.54119 23.5139 8.6237ZM18.1057 7.02562C20.0842 5.227 23.2928 5.2319 25.2689 7.02828C27.245 8.82464 27.2503 11.7416 25.2719 13.5403C23.2933 15.3389 20.0847 15.3339 18.1087 13.5376C16.1326 11.7412 16.1273 8.82424 18.1057 7.02562Z" fill="#006098"/>
</svg>
