<svg width="40" height="49" viewBox="0 0 40 49" fill="none" xmlns="http://www.w3.org/2000/svg">
<path fill-rule="evenodd" clip-rule="evenodd" d="M19.9388 0H20.0612C23.04 0 25.3586 -2.42595e-05 27.2244 0.168781C29.118 0.340085 30.6634 0.692542 32.0716 1.47409C35.0548 3.12992 37.445 6.05785 38.7966 9.71236C39.4346 11.4373 39.7224 13.3306 39.8622 15.6501C40 17.9356 40 20.776 40 24.425V24.575C40 28.224 40 31.0643 39.8622 33.3499C39.7224 35.6696 39.4346 37.5627 38.7966 39.2877C37.445 42.9421 35.0548 45.8701 32.0716 47.5258C30.6634 48.3074 29.118 48.6599 27.2244 48.8312C25.3586 49 23.04 49 20.0612 49H19.9388C16.96 49 14.6413 49 12.7756 48.8312C10.8821 48.6599 9.33654 48.3074 7.92846 47.5258C4.94518 45.8701 2.55504 42.9421 1.20334 39.2877C0.56534 37.5627 0.27762 35.6696 0.13778 33.3499C-1.98036e-05 31.0643 0 28.224 0 24.575V24.425C0 20.776 -1.98036e-05 17.9356 0.13778 15.6501C0.27762 13.3306 0.56534 11.4373 1.20334 9.71236C2.55504 6.05785 4.94518 3.12992 7.92846 1.47409C9.33654 0.692542 10.8821 0.340085 12.7756 0.168781C14.6413 -2.42595e-05 16.96 0 19.9388 0ZM12.9966 3.83381C11.2693 3.99007 10.1192 4.29277 9.16658 4.8215C6.84626 6.10939 4.98726 8.38667 3.93592 11.2291C3.5043 12.396 3.2572 13.8049 3.12964 15.9208C3.00096 18.0552 3 20.7603 3 24.5C3 28.2397 3.00096 30.945 3.12964 33.0792C3.2572 35.195 3.5043 36.604 3.93592 37.7709C4.98726 40.6134 6.84626 42.8907 9.16658 44.1784C10.1192 44.7074 11.2693 45.0099 12.9966 45.1662C14.7389 45.3238 16.9472 45.325 20 45.325C23.0528 45.325 25.2612 45.3238 27.0034 45.1662C28.7306 45.0099 29.8808 44.7074 30.8334 44.1784C33.1538 42.8907 35.0128 40.6134 36.064 37.7709C36.4958 36.604 36.7428 35.195 36.8704 33.0792C36.999 30.945 37 28.2397 37 24.5C37 20.7603 36.999 18.0552 36.8704 15.9208C36.7428 13.8049 36.4958 12.396 36.064 11.2291C35.0128 8.38667 33.1538 6.10939 30.8334 4.8215C29.8808 4.29277 28.7306 3.99007 27.0034 3.83381C25.2612 3.67618 23.0528 3.675 20 3.675C16.9472 3.675 14.7389 3.67618 12.9966 3.83381ZM19.4802 12.4625C19.148 12.5489 18.8034 12.7681 17.55 13.6545L13.5577 16.4781C13.199 16.7318 12.9161 16.9339 12.6898 17.1003L19.9764 22.3511L27.0662 16.9228C26.8884 16.7945 26.6824 16.6479 26.4424 16.4781L22.45 13.6545C21.1966 12.7681 20.852 12.5489 20.5198 12.4625C20.177 12.3732 19.823 12.3732 19.4802 12.4625ZM28.872 19.8742L21.5 25.5185V36.0067C21.7438 35.8425 22.0508 35.6279 22.45 35.3454L26.4424 32.5218C27.6958 31.6354 28.023 31.3794 28.2502 31.0702C28.4846 30.7512 28.6616 30.3756 28.77 29.9674C28.8748 29.5717 28.8924 29.0964 28.8924 27.3236V21.6764C28.8924 20.8169 28.8882 20.2625 28.872 19.8742ZM18.5 36.0067V25.5511L11.1173 20.2309C11.1099 20.5869 11.1077 21.0509 11.1077 21.6764V27.3236C11.1077 29.0964 11.1251 29.5717 11.2301 29.9674C11.3383 30.3756 11.5154 30.7512 11.7498 31.0702C11.977 31.3794 12.3043 31.6354 13.5577 32.5218L17.55 35.3454C17.9492 35.6279 18.2562 35.8425 18.5 36.0067ZM18.8564 8.86778C19.6104 8.67146 20.3896 8.67146 21.1436 8.86778C22.001 9.09102 22.7814 9.64403 23.7748 10.3478C23.8324 10.3887 23.8908 10.43 23.95 10.4719L27.9424 13.2955C28.0014 13.3373 28.06 13.3786 28.1176 13.4193C29.1118 14.1212 29.893 14.6727 30.4796 15.4707C30.9954 16.1724 31.385 16.999 31.6232 17.897C31.894 18.9183 31.8934 20.0229 31.8924 21.4284C31.8924 21.51 31.8924 21.5928 31.8924 21.6764V27.3236C31.8924 27.4072 31.8924 27.49 31.8924 27.5716C31.8934 28.9771 31.894 30.0816 31.6232 31.103C31.385 32.0009 30.9954 32.8276 30.4796 33.5292C29.893 34.3272 29.1118 34.8787 28.1176 35.5806C28.06 35.6215 28.0014 35.6627 27.9424 35.7046L23.95 38.5282C23.8908 38.5699 23.8324 38.6113 23.7748 38.6522C22.7814 39.3561 22.001 39.909 21.1436 40.1322C20.3896 40.3285 19.6104 40.3285 18.8564 40.1322C17.999 39.909 17.2186 39.3561 16.2252 38.6522C16.1676 38.6113 16.1092 38.5699 16.05 38.5282L12.0577 35.7046C11.9985 35.6627 11.9401 35.6215 11.8823 35.5806C10.8882 34.8787 10.107 34.3272 9.5204 33.5292C9.00466 32.8276 8.61506 32.0009 8.37688 31.103C8.106 30.0816 8.1067 28.9771 8.1076 27.5716C8.10764 27.49 8.1077 27.4072 8.1077 27.3236V21.6764C8.1077 21.5928 8.10764 21.51 8.1076 21.4284C8.1067 20.0229 8.106 18.9183 8.37688 17.897C8.61506 16.999 9.00466 16.1724 9.5204 15.4707C10.107 14.6727 10.8882 14.1212 11.8824 13.4193C11.9401 13.3786 11.9985 13.3373 12.0577 13.2955L16.05 10.4719C16.1092 10.43 16.1676 10.3887 16.2252 10.3478C17.2186 9.64403 17.999 9.09102 18.8564 8.86778Z" fill="#006098"/>
</svg>
