<svg width="35" height="42" viewBox="0 0 35 42" fill="none" xmlns="http://www.w3.org/2000/svg">
<path fill-rule="evenodd" clip-rule="evenodd" d="M17.5006 3.14999C14.2074 3.14999 11.5377 6.02012 11.5377 9.5606C11.5377 13.1011 14.2074 15.9712 17.5006 15.9712C20.7939 15.9712 23.4635 13.1011 23.4635 9.5606C23.4635 6.02012 20.7939 3.14999 17.5006 3.14999ZM8.60773 9.5606C8.60773 4.28042 12.5893 0 17.5006 0C22.412 0 26.3935 4.28042 26.3935 9.5606C26.3935 14.8408 22.412 19.1213 17.5006 19.1213C12.5893 19.1213 8.60773 14.8408 8.60773 9.5606ZM11.5445 22.2108C11.6229 22.2108 11.7025 22.2108 11.7832 22.2108H23.2168C23.2975 22.2108 23.377 22.2108 23.4555 22.2108C25.5555 22.2104 26.893 22.2102 28.033 22.5254C31.3077 23.4309 33.865 26.1802 34.7073 29.7009C35.0005 30.9264 35.0003 32.3643 34.9999 34.622C34.9999 34.7064 34.9999 34.7919 34.9999 34.8786C34.9999 34.9452 34.9999 35.0111 34.9999 35.076C35.0005 36.1338 35.0011 36.9509 34.8306 37.6636C34.3428 39.7019 32.8624 41.2935 30.9663 41.8178C30.3033 42.0012 29.5433 42.0007 28.5594 41.9999C28.499 41.9999 28.4379 41.9999 28.3758 41.9999H6.62415C6.56211 41.9999 6.50094 41.9999 6.4406 41.9999C5.45668 42.0007 4.69662 42.0012 4.03366 41.8178C2.13771 41.2935 0.657196 39.7019 0.169506 37.6636C-0.0010397 36.9509 -0.000550939 36.1338 7.41292e-05 35.0758C0.000113196 35.0111 0.000151903 34.9452 0.000151903 34.8786C0.000151903 34.7919 0.000132317 34.7064 0.000112783 34.622C-0.000277884 32.3643 -0.000531756 30.9264 0.292664 29.7009C1.13504 26.1802 3.69229 23.4309 6.9671 22.5254C8.10695 22.2102 9.4445 22.2104 11.5445 22.2108ZM11.7832 25.3608C9.36359 25.3608 8.42984 25.3734 7.69702 25.576C5.45635 26.1958 3.70665 28.0767 3.1303 30.4856C2.9418 31.2735 2.93016 32.2773 2.93016 34.8786C2.93016 36.2278 2.9418 36.6058 3.00714 36.8788C3.2288 37.8054 3.90177 38.5288 4.76356 38.7672C5.01757 38.8373 5.36908 38.8499 6.62415 38.8499H28.3758C29.631 38.8499 29.9824 38.8373 30.2365 38.7672C31.0983 38.5288 31.7713 37.8054 31.993 36.8788C32.0582 36.6058 32.0699 36.2278 32.0699 34.8786C32.0699 32.2773 32.0582 31.2735 31.8697 30.4856C31.2933 28.0767 29.5437 26.1958 27.303 25.576C26.5701 25.3734 25.6364 25.3608 23.2168 25.3608H11.7832Z" fill="#006098"/>
</svg>
