<svg width="28" height="21" viewBox="0 0 28 21" fill="none" xmlns="http://www.w3.org/2000/svg">
<path fill-rule="evenodd" clip-rule="evenodd" d="M14 1.55C7.42781 1.55 2.1 5.48243 2.1 10.3333C2.1 15.1842 7.42781 19.1167 14 19.1167C20.5722 19.1167 25.9 15.1842 25.9 10.3333C25.9 5.48243 20.5722 1.55 14 1.55ZM0 10.3333C0 4.62639 6.26801 0 14 0C21.7319 0 28 4.62639 28 10.3333C28 16.0402 21.7319 20.6667 14 20.6667C6.26801 20.6667 0 16.0402 0 10.3333ZM12.0172 4.25891C12.2255 4.65837 11.9556 5.10683 11.4143 5.26056C9.55326 5.78921 8.0521 6.86255 7.2771 8.21874C7.05174 8.61314 6.4359 8.79801 5.90157 8.63164C5.36726 8.46527 5.11682 8.01073 5.34218 7.61636C6.33898 5.87205 8.26638 4.49394 10.6601 3.81398C11.2013 3.66025 11.8089 3.85946 12.0172 4.25891ZM14 9.04167C13.0334 9.04167 12.25 9.61992 12.25 10.3333C12.25 11.0467 13.0334 11.625 14 11.625C14.9666 11.625 15.75 11.0467 15.75 10.3333C15.75 9.61992 14.9666 9.04167 14 9.04167ZM10.15 10.3333C10.15 8.76391 11.8737 7.49167 14 7.49167C16.1263 7.49167 17.85 8.76391 17.85 10.3333C17.85 11.9028 16.1263 13.175 14 13.175C11.8737 13.175 10.15 11.9028 10.15 10.3333ZM22.1235 12.0458C22.6517 12.2224 22.8859 12.6817 22.6467 13.0716C21.5883 14.796 19.6126 16.1363 17.1956 16.7698C16.6491 16.913 16.0489 16.7021 15.8549 16.2988C15.6608 15.8954 15.9464 15.4524 16.493 15.3091C18.3722 14.8167 19.9109 13.7727 20.7337 12.4319C20.9731 12.0421 21.5953 11.8692 22.1235 12.0458Z" fill="#006098"/>
</svg>
